<svg width="29" height="29" viewBox="0 0 29 29" fill="none" xmlns="http://www.w3.org/2000/svg">
<path d="M14.5 4.83337C9.16039 4.83337 4.83334 9.16162 4.83334 14.5C4.83334 19.8385 9.16039 24.1667 14.5 24.1667C19.8396 24.1667 24.1667 19.8385 24.1667 14.5C24.1667 9.16162 19.8396 4.83337 14.5 4.83337ZM18.9793 17.2708C19.2059 17.4973 19.3332 17.8046 19.3332 18.125C19.3332 18.4455 19.2059 18.7528 18.9793 18.9793C18.7527 19.2059 18.4454 19.3332 18.125 19.3332C17.8046 19.3332 17.4973 19.2059 17.2707 18.9793L14.5 16.2086L11.7293 18.9793C11.6173 19.0919 11.4842 19.1813 11.3376 19.2423C11.191 19.3032 11.0338 19.3346 10.875 19.3346C10.7162 19.3346 10.559 19.3032 10.4124 19.2423C10.2658 19.1813 10.1327 19.0919 10.0207 18.9793C9.79419 18.7527 9.66693 18.4454 9.66693 18.125C9.66693 17.8046 9.79419 17.4973 10.0207 17.2708L12.7914 14.5L10.0207 11.7293C9.79415 11.5028 9.66686 11.1955 9.66686 10.875C9.66686 10.5546 9.79415 10.2473 10.0207 10.0207C10.2473 9.79418 10.5546 9.66689 10.875 9.66689C11.1954 9.66689 11.5027 9.79418 11.7293 10.0207L14.5 12.7915L17.2707 10.0207C17.4973 9.79418 17.8046 9.66689 18.125 9.66689C18.4454 9.66689 18.7527 9.79418 18.9793 10.0207C19.2059 10.2473 19.3332 10.5546 19.3332 10.875C19.3332 11.1955 19.2059 11.5028 18.9793 11.7293L16.2086 14.5L18.9793 17.2708Z" fill="white"/>
</svg>
