<svg width="29" height="29" viewBox="0 0 29 29" fill="none" xmlns="http://www.w3.org/2000/svg">
<path d="M8.45834 8.45837H7.25001C6.60907 8.45837 5.99438 8.71299 5.54117 9.1662C5.08796 9.61941 4.83334 10.2341 4.83334 10.875V21.75C4.83334 22.391 5.08796 23.0057 5.54117 23.4589C5.99438 23.9121 6.60907 24.1667 7.25001 24.1667H18.125C18.7659 24.1667 19.3806 23.9121 19.8339 23.4589C20.2871 23.0057 20.5417 22.391 20.5417 21.75V20.5417" stroke="white" stroke-width="2" stroke-linecap="round" stroke-linejoin="round"/>
<path d="M19.3333 6.04167L22.9583 9.66667M24.6319 7.95688C25.1078 7.48098 25.3751 6.83553 25.3751 6.16251C25.3751 5.48949 25.1078 4.84403 24.6319 4.36813C24.156 3.89223 23.5105 3.62488 22.8375 3.62488C22.1645 3.62488 21.519 3.89223 21.0431 4.36813L10.875 14.5V18.125H14.5L24.6319 7.95688Z" stroke="white" stroke-width="2" stroke-linecap="round" stroke-linejoin="round"/>
</svg>
