<svg width="71" height="50" viewBox="0 0 71 50" fill="none" xmlns="http://www.w3.org/2000/svg">
<path d="M17.1875 13.0703C17.1615 12.9922 17.2396 12.7969 17.4219 12.4844C17.6042 12.1458 17.7995 11.7422 18.0078 11.2734C18.2422 10.7786 18.4635 10.2318 18.6719 9.63281C18.9062 9.00781 19.0625 8.36979 19.1406 7.71875C19.2448 7.06771 19.2448 6.41667 19.1406 5.76562C19.0365 5.11458 18.763 4.48958 18.3203 3.89062C18.0599 3.57812 17.6693 3.40885 17.1484 3.38281C16.6536 3.33073 16.0807 3.40885 15.4297 3.61719C14.8047 3.79948 14.1406 4.09896 13.4375 4.51562C12.7604 4.90625 12.1354 5.375 11.5625 5.92188C10.9896 6.44271 10.4948 7.02865 10.0781 7.67969C9.6875 8.33073 9.46615 8.99479 9.41406 9.67188C9.36198 10.2188 9.375 10.7266 9.45312 11.1953C9.55729 11.6641 9.6875 12.0938 9.84375 12.4844C10 12.875 10.1693 13.2396 10.3516 13.5781C10.5339 13.9167 10.7031 14.2161 10.8594 14.4766C11.0677 14.8411 11.3932 15.2448 11.8359 15.6875C12.2786 16.1302 12.7604 16.638 13.2812 17.2109C13.8021 17.7578 14.3229 18.3828 14.8438 19.0859C15.3646 19.7891 15.8203 20.5833 16.2109 21.4688C16.6016 22.3542 16.875 23.3438 17.0312 24.4375C17.1875 25.5312 17.1745 26.7422 16.9922 28.0703C16.7057 29.9974 16.25 31.599 15.625 32.875C15 34.1771 14.3099 35.2188 13.5547 36C12.8255 36.7812 12.0833 37.3411 11.3281 37.6797C10.5729 38.0443 9.94792 38.2786 9.45312 38.3828C9.0625 38.4609 8.59375 38.526 8.04688 38.5781C7.52604 38.6562 6.96615 38.6432 6.36719 38.5391C5.79427 38.4609 5.20833 38.2786 4.60938 37.9922C4.01042 37.7318 3.47656 37.3151 3.00781 36.7422C2.46094 36.0911 2.03125 35.388 1.71875 34.6328C1.43229 33.9818 1.22396 33.2266 1.09375 32.3672C0.9375 31.5339 1.0026 30.6615 1.28906 29.75C1.4974 29.5156 1.71875 29.3073 1.95312 29.125C2.1875 28.9427 2.42188 28.7865 2.65625 28.6562C2.91667 28.5 3.1901 28.3568 3.47656 28.2266C3.8151 28.1224 4.15365 28.0312 4.49219 27.9531C4.77865 27.901 5.07812 27.875 5.39062 27.875C5.72917 27.849 6.04167 27.888 6.32812 27.9922C5.9375 28.4349 5.66406 28.8516 5.50781 29.2422C5.40365 29.4505 5.32552 29.6328 5.27344 29.7891C5.16927 30.2839 5.13021 30.8698 5.15625 31.5469C5.20833 32.25 5.35156 32.9141 5.58594 33.5391C5.84635 34.1901 6.21094 34.737 6.67969 35.1797C7.14844 35.6484 7.77344 35.8958 8.55469 35.9219C10.4557 35.974 12.0703 34.4896 13.3984 31.4688C13.8411 30.5312 14.0625 29.5807 14.0625 28.6172C14.0885 27.6536 13.9714 26.7292 13.7109 25.8438C13.4766 24.9583 13.151 24.138 12.7344 23.3828C12.3438 22.6016 11.9401 21.9375 11.5234 21.3906C11.1068 20.8438 10.599 20.2578 10 19.6328C9.42708 18.9818 8.85417 18.2786 8.28125 17.5234C7.70833 16.7682 7.1875 15.9479 6.71875 15.0625C6.27604 14.1771 5.97656 13.2135 5.82031 12.1719C5.61198 10.7135 5.74219 9.38542 6.21094 8.1875C6.70573 6.96354 7.35677 5.89583 8.16406 4.98438C8.9974 4.07292 9.89583 3.33073 10.8594 2.75781C11.849 2.1849 12.7214 1.82031 13.4766 1.66406C17.6693 0.830729 20.4167 1.53385 21.7188 3.77344C22.2656 4.63281 22.5651 5.54427 22.6172 6.50781C22.6693 7.47135 22.6042 8.36979 22.4219 9.20312C22.2656 10.0104 22.0573 10.7005 21.7969 11.2734C21.5625 11.8203 21.4062 12.1198 21.3281 12.1719C21.1719 12.3281 20.9245 12.4974 20.5859 12.6797C20.2474 12.862 19.7005 13.0312 18.9453 13.1875C18.737 13.2396 18.5286 13.2656 18.3203 13.2656C18.138 13.2656 17.9427 13.2526 17.7344 13.2266C17.526 13.2005 17.3438 13.1484 17.1875 13.0703ZM41.875 23.2266C41.5104 23.7474 41.0417 24.3984 40.4688 25.1797C39.8958 25.9349 39.2969 26.7031 38.6719 27.4844C38.0729 28.2396 37.474 28.9427 36.875 29.5938C36.3021 30.2188 35.8203 30.6615 35.4297 30.9219C35.1693 31.0781 34.8698 31.2083 34.5312 31.3125C34.1927 31.4167 33.8411 31.4818 33.4766 31.5078C33.138 31.5339 32.8125 31.5078 32.5 31.4297C32.1875 31.3776 31.9141 31.2734 31.6797 31.1172C31.4453 30.9349 31.25 30.6745 31.0938 30.3359C30.9635 30.0495 30.8333 29.6719 30.7031 29.2031C30.599 28.7344 30.5599 28.1484 30.5859 27.4453C29.9609 28.487 29.2708 29.2943 28.5156 29.8672C27.7604 30.4141 27.0443 30.8177 26.3672 31.0781C25.5859 31.3646 24.8047 31.5339 24.0234 31.5859C23.6589 31.5859 23.2682 31.4557 22.8516 31.1953C22.4349 30.9609 22.0833 30.5833 21.7969 30.0625C21.5104 29.5156 21.3281 28.8255 21.25 27.9922C21.1719 27.1328 21.276 26.1172 21.5625 24.9453C21.9271 23.3568 22.5 21.9115 23.2812 20.6094C24.0885 19.3073 24.9609 18.2005 25.8984 17.2891C26.8359 16.3516 27.7604 15.6484 28.6719 15.1797C29.5833 14.7109 30.3385 14.5026 30.9375 14.5547C31.6406 14.6849 32.2135 14.8932 32.6562 15.1797C33.0208 15.4401 33.2552 15.8307 33.3594 16.3516C33.4896 16.8464 33.2812 17.5104 32.7344 18.3438C33.099 18.2656 33.3984 18.2135 33.6328 18.1875C33.8932 18.1615 34.0885 18.1484 34.2188 18.1484C34.375 18.1484 34.4792 18.1615 34.5312 18.1875C34.5573 18.2396 34.5703 18.3568 34.5703 18.5391C34.5703 18.6953 34.5312 18.9948 34.4531 19.4375C34.375 19.8802 34.2578 20.4792 34.1016 21.2344C33.9453 21.9896 33.737 22.9661 33.4766 24.1641C33.4245 24.3984 33.3724 24.6198 33.3203 24.8281C33.2943 25.0104 33.2552 25.2057 33.2031 25.4141C33.1771 25.5964 33.138 25.8177 33.0859 26.0781C33.0339 26.3385 32.9688 26.6641 32.8906 27.0547C32.8646 27.2891 32.8516 27.5495 32.8516 27.8359C32.8776 28.0964 32.9297 28.3438 33.0078 28.5781C33.0859 28.8125 33.2031 29.0078 33.3594 29.1641C33.5417 29.2943 33.7891 29.3594 34.1016 29.3594C34.362 29.3594 34.7005 29.2031 35.1172 28.8906C35.5339 28.5521 35.9766 28.1354 36.4453 27.6406C36.9141 27.1198 37.3958 26.5599 37.8906 25.9609C38.4115 25.3359 38.8932 24.737 39.3359 24.1641C39.7786 23.5911 40.1693 23.0833 40.5078 22.6406C40.8724 22.1979 41.1328 21.8724 41.2891 21.6641C41.4974 21.4297 41.7057 21.2995 41.9141 21.2734C42.1224 21.2214 42.2786 21.2734 42.3828 21.4297C42.487 21.5859 42.5 21.8203 42.4219 22.1328C42.3698 22.4453 42.1875 22.8099 41.875 23.2266ZM30.4297 24.9453C30.5599 24.4245 30.7161 23.8125 30.8984 23.1094C31.0807 22.4062 31.237 21.7292 31.3672 21.0781C31.4974 20.4271 31.5885 19.8932 31.6406 19.4766C31.7188 19.0339 31.7057 18.8255 31.6016 18.8516C31.4714 18.8776 31.3281 18.9167 31.1719 18.9688C31.0417 19.0208 30.8724 19.0599 30.6641 19.0859C30.4557 19.112 30.2474 19.151 30.0391 19.2031C30.2474 18.7865 30.3646 18.4479 30.3906 18.1875C30.4427 17.901 30.4557 17.6797 30.4297 17.5234C30.4036 17.3411 30.3516 17.1979 30.2734 17.0938C29.987 16.8594 29.4792 17.0547 28.75 17.6797C28.0469 18.2786 27.2266 19.3984 26.2891 21.0391C25.8984 21.7161 25.5859 22.4453 25.3516 23.2266C25.1172 23.9818 24.9479 24.6979 24.8438 25.375C24.7656 26.0521 24.7526 26.651 24.8047 27.1719C24.8568 27.6667 24.9609 27.9922 25.1172 28.1484C25.4036 28.4349 25.7292 28.5781 26.0938 28.5781C26.4583 28.5521 26.8229 28.4479 27.1875 28.2656C27.5781 28.0573 27.9557 27.7969 28.3203 27.4844C28.7109 27.1719 29.0495 26.8464 29.3359 26.5078C29.6484 26.1693 29.8958 25.8568 30.0781 25.5703C30.2865 25.2839 30.4036 25.0755 30.4297 24.9453ZM40.0391 26.9375C39.7526 26.651 39.5443 26.3776 39.4141 26.1172C39.3099 25.8307 39.2318 25.5573 39.1797 25.2969C39.1276 25.0104 39.1276 24.724 39.1797 24.4375C39.2839 24.0729 39.4401 23.7344 39.6484 23.4219C39.8307 23.1354 40.0781 22.849 40.3906 22.5625C40.7031 22.25 41.1198 21.9635 41.6406 21.7031C41.9792 20.8698 42.2786 19.9974 42.5391 19.0859C42.8255 18.1484 43.0729 17.3021 43.2812 16.5469C43.5156 15.6615 43.724 14.776 43.9062 13.8906C44.5573 11.6771 44.8958 9.88021 44.9219 8.5C44.9479 7.09375 44.9219 6.16927 44.8438 5.72656C44.8177 5.54427 44.7917 5.36198 44.7656 5.17969C44.7135 5.02344 44.6615 4.85417 44.6094 4.67188C44.5833 4.46354 44.5443 4.26823 44.4922 4.08594C44.7786 3.92969 45.026 3.79948 45.2344 3.69531C45.4688 3.59115 45.6641 3.51302 45.8203 3.46094C46.0026 3.38281 46.1719 3.33073 46.3281 3.30469C46.9271 3.17448 47.487 3.10938 48.0078 3.10938C48.5547 3.08333 48.8542 3.17448 48.9062 3.38281C48.9323 3.51302 48.9583 3.7474 48.9844 4.08594C49.0365 4.42448 49.0625 4.84115 49.0625 5.33594C49.0625 5.83073 49.0234 6.39062 48.9453 7.01562C48.8672 7.61458 48.724 8.2526 48.5156 8.92969C48.3333 9.52865 48.0859 10.362 47.7734 11.4297C47.487 12.3411 47.1094 13.5651 46.6406 15.1016C46.1719 16.612 45.5599 18.5521 44.8047 20.9219C45.5859 20.6615 46.4453 20.4141 47.3828 20.1797C48.3203 19.9453 49.2708 19.75 50.2344 19.5938C51.224 19.4375 52.2005 19.3203 53.1641 19.2422C54.1536 19.1641 55.0651 19.151 55.8984 19.2031C56.0547 19.2031 56.1589 19.2812 56.2109 19.4375C56.2891 19.5677 56.2891 19.7109 56.2109 19.8672C56.1589 20.0234 56.0156 20.1797 55.7812 20.3359C55.5729 20.4661 55.2604 20.5443 54.8438 20.5703C54.3229 20.6224 53.75 20.6875 53.125 20.7656C52.5 20.8177 51.849 20.9089 51.1719 21.0391C50.5208 21.1432 49.8698 21.2865 49.2188 21.4688C48.5677 21.625 47.9557 21.8203 47.3828 22.0547C46.9401 22.2109 46.4974 22.3672 46.0547 22.5234C45.6901 22.6536 45.2995 22.8099 44.8828 22.9922C44.4922 23.1484 44.1667 23.2917 43.9062 23.4219L43.0078 26.2734C44.5182 27.3411 45.6771 28.4349 46.4844 29.5547C47.3177 30.6745 47.9167 31.7031 48.2812 32.6406C48.724 33.7344 48.9714 34.8021 49.0234 35.8438C49.0234 36.9896 48.8542 38.1354 48.5156 39.2812C48.1771 40.4531 47.7214 41.5599 47.1484 42.6016C46.6016 43.6693 45.9505 44.6589 45.1953 45.5703C44.4661 46.4818 43.6849 47.263 42.8516 47.9141C42.0443 48.5651 41.2109 49.0599 40.3516 49.3984C39.5182 49.737 38.724 49.8672 37.9688 49.7891C37.4219 49.737 36.9661 49.5547 36.6016 49.2422C36.237 48.9557 35.9635 48.5781 35.7812 48.1094C35.599 47.6667 35.4948 47.1589 35.4688 46.5859C35.4427 46.0391 35.4948 45.4922 35.625 44.9453C35.7292 44.3984 35.9505 43.3828 36.2891 41.8984C36.5755 40.6484 37.0182 38.8255 37.6172 36.4297C38.2161 34.0599 39.0234 30.8958 40.0391 26.9375ZM42.3438 28.7734C41.9792 30.0755 41.6536 31.2734 41.3672 32.3672C41.1068 33.4609 40.8854 34.4245 40.7031 35.2578C40.4688 36.2214 40.2865 37.0938 40.1562 37.875C39.9219 38.8646 39.6745 39.8411 39.4141 40.8047C39.1797 41.7682 38.9974 42.6276 38.8672 43.3828C38.7109 44.1641 38.6458 44.7891 38.6719 45.2578C38.6979 45.7266 38.8672 45.9609 39.1797 45.9609C39.9349 46.013 40.7161 45.7135 41.5234 45.0625C42.3568 44.4375 43.112 43.6302 43.7891 42.6406C44.4661 41.6771 45.026 40.6224 45.4688 39.4766C45.9115 38.3568 46.1328 37.3151 46.1328 36.3516C46.1328 35.2839 45.9635 34.2292 45.625 33.1875C45.3906 32.6406 45.1172 32.1068 44.8047 31.5859C44.5182 31.1432 44.1667 30.6745 43.75 30.1797C43.3594 29.6589 42.8906 29.1901 42.3438 28.7734ZM69.9609 22.875C69.1797 24.0208 68.2943 25.1406 67.3047 26.2344C66.3151 27.3021 65.2604 28.2656 64.1406 29.125C63.0469 29.9583 61.9141 30.6354 60.7422 31.1562C59.5964 31.6771 58.4766 31.9375 57.3828 31.9375C56.8099 31.9375 56.1849 31.7943 55.5078 31.5078C54.8568 31.2474 54.2578 30.8307 53.7109 30.2578C53.1641 29.6849 52.7214 28.9427 52.3828 28.0312C52.0703 27.1198 51.9792 26.013 52.1094 24.7109C52.2135 23.6432 52.5391 22.5234 53.0859 21.3516C53.6589 20.1536 54.349 19.0599 55.1562 18.0703C55.9896 17.0807 56.9141 16.2604 57.9297 15.6094C58.9714 14.9583 60.013 14.6328 61.0547 14.6328C62.0443 14.6328 62.7604 14.8802 63.2031 15.375C63.6458 15.8698 63.8411 16.4818 63.7891 17.2109C63.7109 18.0182 63.4766 18.7604 63.0859 19.4375C62.7214 20.1146 62.2786 20.7266 61.7578 21.2734C61.237 21.8203 60.6771 22.3151 60.0781 22.7578C59.5052 23.2005 58.9583 23.6042 58.4375 23.9688C57.8646 24.3594 57.3177 24.737 56.7969 25.1016C56.276 25.4401 55.8203 25.7526 55.4297 26.0391C55.4557 26.6901 55.5729 27.237 55.7812 27.6797C55.9896 28.1224 56.25 28.487 56.5625 28.7734C56.875 29.0339 57.2266 29.2292 57.6172 29.3594C58.0339 29.4635 58.4505 29.5156 58.8672 29.5156C59.7526 29.5156 60.6771 29.2422 61.6406 28.6953C62.6042 28.1224 63.5417 27.4453 64.4531 26.6641C65.3906 25.8568 66.25 25.0234 67.0312 24.1641C67.8385 23.3047 68.5026 22.5625 69.0234 21.9375C69.2057 21.7292 69.388 21.612 69.5703 21.5859C69.7786 21.5339 69.9349 21.5599 70.0391 21.6641C70.1693 21.7422 70.2344 21.8984 70.2344 22.1328C70.2344 22.3411 70.1432 22.5885 69.9609 22.875ZM59.9609 16.8594C59.6484 16.8594 59.2708 17.0156 58.8281 17.3281C58.4115 17.6406 57.9948 18.0964 57.5781 18.6953C57.1615 19.2682 56.7708 19.9844 56.4062 20.8438C56.0417 21.6771 55.7682 22.6406 55.5859 23.7344C55.8984 23.5 56.237 23.2656 56.6016 23.0312C56.9661 22.7708 57.3307 22.4974 57.6953 22.2109C58.8151 21.3516 59.5964 20.5964 60.0391 19.9453C60.4818 19.2943 60.7292 18.7344 60.7812 18.2656C60.8333 17.7708 60.7812 17.4193 60.625 17.2109C60.4688 16.9766 60.2474 16.8594 59.9609 16.8594Z" fill="white"/>
</svg>
